<?xml version="1.0" encoding="UTF-8"?><svg id="a" xmlns="http://www.w3.org/2000/svg" viewBox="0 0 648.17837 565.39332"><circle id="b" cx="241.49294" cy="323.90038" r="237.49294" fill="none" stroke="#103778" stroke-miterlimit="11.33858" stroke-width="8"/><circle id="c" cx="242.92583" cy="326.46094" r="201.66075" fill="none" stroke="#103778" stroke-miterlimit="11.33858" stroke-width="3"/><path d="M134.5856,451.99219v-246c0-22.09139,17.90861-40,40-40h158.55757c11.04569,0,20,8.95431,20,20v2.66443c0,11.04569-8.95431,20-20,20h-129.00593c-11.04569,0-20,8.95431-20,20v56.48725c0,11.04569,8.95431,20,20,20h116.61802c11.04569,0,20,8.95431,20,20v2.22685c0,11.04569-8.95431,20-20,20h-116.61802c-11,0-20,9-20,20v61.95705c0,11.04569,8.95431,20,20,20h129.44836c11.04569,0,20,8.95431,20,20v2.66443c0,11.04569-8.95431,20-20,20h-159c-22,0-40-18-40-40Z" fill="none" stroke="#103778" stroke-miterlimit="10" stroke-width="2"/></svg>