<?xml version="1.0" encoding="UTF-8"?><svg id="a" xmlns="http://www.w3.org/2000/svg" viewBox="0 0 482.98588 482.98588"><circle id="b" cx="241.49294" cy="241.49294" r="237.49294" fill="none" stroke="#103778" stroke-miterlimit="11.33858" stroke-width="8"/><circle id="c" cx="242.92583" cy="244.0535" r="201.66075" fill="none" stroke="#103778" stroke-miterlimit="11.33858" stroke-width="3"/><path d="M339.74086,111.58475c-1.04816,10.00286-1.76612,19.69725-2.15742,29.08261-.39247,9.39138-.58871,16.52478-.58871,21.40074,0,4.63542.12808,9.08838.39247,13.35231.25734,4.26941.52055,7.86487.78377,10.79132h-9.02215c-2.09632-16.82723-5.49108-30.05407-10.19839-39.69092-4.70731-9.63137-11.05149-16.46232-19.02548-20.48626-7.97987-4.02394-18.3745-6.03591-31.18506-6.03591h-21.5742c-7.84532,0-13.86401.61148-18.0443,1.82896-4.18617,1.22351-6.99928,3.78395-8.43344,7.68241-1.44004,3.90394-2.15742,9.87684-2.15742,17.92527v187.29892c0,7.80789.71738,13.71887,2.15742,17.74281,1.43417,4.02394,4.24727,6.64739,8.43344,7.86487,4.1803,1.22296,10.19898,1.82896,18.0443,1.82896h22.35915c13.33699,0,24.51657-2.31442,33.53872-6.95094,9.02215-4.62994,16.27936-12.25482,21.77044-22.86369,5.49226-10.60887,9.54388-25.17811,12.16075-43.71541h9.02215c-.78494,7.56242-1.17742,17.31982-1.17742,29.26561,0,5.12198.19624,12.56385.58871,22.31577.39247,9.7563,1.10926,19.87971,2.15742,30.36255-13.33699-.48546-28.37783-.78901-45.11076-.91503-16.73881-.11945-31.64451-.18191-44.71829-.18191h-23.73162c-9.80651,0-20.39796.06246-31.77318.18191-11.37581.12602-22.88616.24656-34.51931.36601-11.63961.12602-22.69051.30903-33.14683.54902v-7.31585c8.63027-.48655,15.10253-1.46405,19.41737-2.927s7.18964-4.38995,8.62968-8.7799c1.43417-4.38995,2.15742-10.97488,2.15742-19.75368v-181.44657c0-9.01989-.72325-15.66728-2.15742-19.93724-1.44004-4.26393-4.31484-7.19038-8.62968-8.77935-4.31484-1.58349-10.7871-2.49798-19.41737-2.74399v-7.3164c10.45632.24602,21.50722.42902,33.14683.54902,11.63315.12547,23.1435.24547,34.51931.36546,11.37522.12602,21.96667.18301,31.77318.18301h23.73162c12.02562,0,25.69398-.05698,40.99216-.18301,15.29818-.11999,28.96066-.423,40.99216-.91448ZM276.58579,236.69453v7.31695h-69.82298v-7.31695h69.82298ZM287.9616,188.40671c-1.04816,13.90133-1.50761,24.5102-1.37365,31.8266.12926,7.3164.19624,14.02626.19624,20.12024,0,6.09837.12926,12.80275.39247,20.1197.25734,7.31585.91303,17.92472,1.96118,31.8266h-9.02215c-1.31137-8.28896-3.33366-16.15384-6.07979-23.59571-2.74613-7.4364-7.06097-13.40984-12.94452-17.92472-5.88355-4.51049-14.31817-6.76793-25.30092-6.76793v-7.31695c8.10266,0,14.71006-1.5824,19.80867-4.75487,5.09978-3.16699,9.21839-7.25394,12.35699-12.25537,3.13742-4.99541,5.55336-10.24285,7.2572-15.73029,1.69679-5.48689,2.94119-10.66585,3.72613-15.54729h9.02215Z" fill="#163973" stroke-width="0"/></svg>